<svg width="512" height="512" viewBox="0 0 512 512" fill="none" xmlns="http://www.w3.org/2000/svg">
<rect width="512" height="512" fill="#0B0A13"/>
<path fill-rule="evenodd" clip-rule="evenodd" d="M229 128.557C246.017 118.732 266.983 118.732 284 128.557L370.007 178.213C387.024 188.037 397.507 206.194 397.507 225.844V325.156C397.507 344.806 387.024 362.963 370.007 372.787L284 422.443C266.983 432.268 246.017 432.268 229 422.443L142.993 372.787C125.976 362.963 115.493 344.806 115.493 325.156V225.844C115.493 206.194 125.976 188.037 142.993 178.213L229 128.557ZM269 154.537C261.265 150.072 251.735 150.072 244 154.537L157.993 204.193C150.258 208.659 145.493 216.912 145.493 225.844V325.156C145.493 334.088 150.258 342.341 157.993 346.807L244 396.463C251.735 400.928 261.265 400.928 269 396.463L355.007 346.807C362.742 342.341 367.507 334.088 367.507 325.156V225.844C367.507 216.912 362.742 208.659 355.007 204.193L269 154.537Z" fill="url(#paint0_linear_195_2180)"/>
<path d="M356.194 143.525C358.989 147.997 362.675 151.639 367.25 154.45V220L397.5 228L397.75 154.45C402.325 151.639 406.01 147.997 408.806 143.525C411.602 139.053 413 133.878 413 128C413 122.122 409.95 114.967 403.85 106.533C397.75 98.1 390.633 89.9222 382.5 82C374.367 89.9222 367.25 98.1 361.15 106.533C355.05 114.967 352 122.122 352 128C352 133.878 353.398 139.053 356.194 143.525Z" fill="url(#paint1_linear_195_2180)"/>
<path d="M317.5 220.5L253 267.5V348.5" stroke="url(#paint2_linear_195_2180)" stroke-width="30" stroke-linecap="round"/>
<defs>
<linearGradient id="paint0_linear_195_2180" x1="111.436" y1="82" x2="459.732" y2="379.921" gradientUnits="userSpaceOnUse">
<stop offset="0.228268" stop-color="#4D7AEB"/>
<stop offset="1" stop-color="#FD6BD6"/>
</linearGradient>
<linearGradient id="paint1_linear_195_2180" x1="111.436" y1="82" x2="459.732" y2="379.921" gradientUnits="userSpaceOnUse">
<stop offset="0.228268" stop-color="#4D7AEB"/>
<stop offset="1" stop-color="#FD6BD6"/>
</linearGradient>
<linearGradient id="paint2_linear_195_2180" x1="252.12" y1="220.5" x2="356.401" y2="273.047" gradientUnits="userSpaceOnUse">
<stop offset="0.228268" stop-color="#4D7AEB"/>
<stop offset="1" stop-color="#FD6BD6"/>
</linearGradient>
</defs>
</svg>
