<svg width="20" height="20" viewBox="0 0 20 20" fill="none" xmlns="http://www.w3.org/2000/svg">
<path opacity="0.4" d="M13.975 15.8167H6.02499C5.67499 15.8167 5.35832 15.5917 5.24165 15.2667L1.77499 5.55833C1.49999 4.78333 2.38332 4.125 3.04165 4.6L6.37499 6.98333C6.81665 7.3 7.44999 7.10833 7.64165 6.6L9.21665 2.4C9.48332 1.675 10.5083 1.675 10.775 2.4L12.35 6.6C12.5417 7.11666 13.1667 7.3 13.6167 6.98333L16.95 4.6C17.6167 4.125 18.4917 4.79166 18.2167 5.55833L14.75 15.2667C14.6417 15.5917 14.325 15.8167 13.975 15.8167Z" fill="#417360"/>
<path d="M14.1667 18.3333H5.83334C5.49168 18.3333 5.20834 18.05 5.20834 17.7083C5.20834 17.3667 5.49168 17.0833 5.83334 17.0833H14.1667C14.5083 17.0833 14.7917 17.3667 14.7917 17.7083C14.7917 18.05 14.5083 18.3333 14.1667 18.3333Z" fill="#417360"/>
<path d="M12.0833 12.2917H7.91666C7.57499 12.2917 7.29166 12.0083 7.29166 11.6667C7.29166 11.325 7.57499 11.0417 7.91666 11.0417H12.0833C12.425 11.0417 12.7083 11.325 12.7083 11.6667C12.7083 12.0083 12.425 12.2917 12.0833 12.2917Z" fill="#417360"/>
</svg>
