<svg width="25" height="24" viewBox="0 0 25 24" fill="none" xmlns="http://www.w3.org/2000/svg">
<g clip-path="url(#clip0_6_396)">
<path fill-rule="evenodd" clip-rule="evenodd" d="M12.75 0.25C13.1642 0.25 13.5 0.585786 13.5 1V3C13.5 3.41421 13.1642 3.75 12.75 3.75C12.3358 3.75 12 3.41421 12 3V1C12 0.585786 12.3358 0.25 12.75 0.25ZM4.43967 3.68967C4.73256 3.39678 5.20744 3.39678 5.50033 3.68967L6.92033 5.10967C7.21322 5.40256 7.21322 5.87744 6.92033 6.17033C6.62744 6.46322 6.15256 6.46322 5.85967 6.17033L4.43967 4.75033C4.14678 4.45744 4.14678 3.98256 4.43967 3.68967ZM21.0603 3.68967C21.3532 3.98256 21.3532 4.45744 21.0603 4.75033L19.6403 6.17033C19.3474 6.46322 18.8726 6.46322 18.5797 6.17033C18.2868 5.87744 18.2868 5.40256 18.5797 5.10967L19.9997 3.68967C20.2926 3.39678 20.7674 3.39678 21.0603 3.68967ZM1 12C1 11.5858 1.33579 11.25 1.75 11.25H3.75C4.16421 11.25 4.5 11.5858 4.5 12C4.5 12.4142 4.16421 12.75 3.75 12.75H1.75C1.33579 12.75 1 12.4142 1 12ZM21 12C21 11.5858 21.3358 11.25 21.75 11.25H23.75C24.1642 11.25 24.5 11.5858 24.5 12C24.5 12.4142 24.1642 12.75 23.75 12.75H21.75C21.3358 12.75 21 12.4142 21 12ZM6.92033 17.8297C7.21322 18.1226 7.21322 18.5974 6.92033 18.8903L5.50033 20.3103C5.20744 20.6032 4.73256 20.6032 4.43967 20.3103C4.14678 20.0174 4.14678 19.5426 4.43967 19.2497L5.85967 17.8297C6.15256 17.5368 6.62744 17.5368 6.92033 17.8297ZM18.5797 17.8297C18.8726 17.5368 19.3474 17.5368 19.6403 17.8297L21.0603 19.2497C21.3532 19.5426 21.3532 20.0174 21.0603 20.3103C20.7674 20.6032 20.2926 20.6032 19.9997 20.3103L18.5797 18.8903C18.2868 18.5974 18.2868 18.1226 18.5797 17.8297ZM12.75 20.25C13.1642 20.25 13.5 20.5858 13.5 21V23C13.5 23.4142 13.1642 23.75 12.75 23.75C12.3358 23.75 12 23.4142 12 23V21C12 20.5858 12.3358 20.25 12.75 20.25Z" fill="#101828"/>
<circle cx="12.75" cy="12" r="6" fill="#101828"/>
</g>
<defs>
<clipPath id="clip0_6_396">
<rect width="24" height="24" fill="white" transform="translate(0.75)"/>
</clipPath>
</defs>
</svg>
