<svg width="25" height="24" viewBox="0 0 25 24" fill="none" xmlns="http://www.w3.org/2000/svg">
<path d="M18.98 12.25C19.26 12.25 19.5 12.01 19.48 11.73C19.21 8.1 16.19 5.25 12.5 5.25C8.81 5.25 5.79 8.1 5.52 11.73C5.5 12.01 5.74 12.25 6.02 12.25H18.98Z" fill="#101828"/>
<path d="M22.5 13H22.42C21.87 13 21.42 12.55 21.42 12C21.42 11.45 21.87 11 22.42 11C22.97 11 23.46 11.45 23.46 12C23.46 12.55 23.05 13 22.5 13ZM2.58 13H2.5C1.95 13 1.5 12.55 1.5 12C1.5 11.45 1.95 11 2.5 11C3.05 11 3.54 11.45 3.54 12C3.54 12.55 3.13 13 2.58 13ZM19.51 5.99C19.25 5.99 19 5.89 18.8 5.7C18.41 5.31 18.41 4.68 18.8 4.29L18.93 4.16C19.32 3.77 19.95 3.77 20.34 4.16C20.73 4.55 20.73 5.18 20.34 5.57L20.21 5.7C20.02 5.89 19.77 5.99 19.51 5.99ZM5.49 5.99C5.23 5.99 4.98 5.89 4.78 5.7L4.65 5.56C4.26 5.17 4.26 4.54 4.65 4.15C5.04 3.76 5.67 3.76 6.06 4.15L6.19 4.28C6.58 4.67 6.58 5.3 6.19 5.69C6 5.89 5.74 5.99 5.49 5.99ZM12.5 3.04C11.95 3.04 11.5 2.63 11.5 2.08V2C11.5 1.45 11.95 1 12.5 1C13.05 1 13.5 1.45 13.5 2C13.5 2.55 13.05 3.04 12.5 3.04Z" fill="#101828"/>
<path d="M20.5 15.75H4.5C4.09 15.75 3.75 15.41 3.75 15C3.75 14.59 4.09 14.25 4.5 14.25H20.5C20.91 14.25 21.25 14.59 21.25 15C21.25 15.41 20.91 15.75 20.5 15.75Z" fill="#101828"/>
<path d="M18.5 18.75H6.5C6.09 18.75 5.75 18.41 5.75 18C5.75 17.59 6.09 17.25 6.5 17.25H18.5C18.91 17.25 19.25 17.59 19.25 18C19.25 18.41 18.91 18.75 18.5 18.75Z" fill="#101828"/>
<path d="M15.5 21.75H9.5C9.09 21.75 8.75 21.41 8.75 21C8.75 20.59 9.09 20.25 9.5 20.25H15.5C15.91 20.25 16.25 20.59 16.25 21C16.25 21.41 15.91 21.75 15.5 21.75Z" fill="#101828"/>
</svg>
