<svg width="30" height="31" viewBox="0 0 30 31" fill="none" xmlns="http://www.w3.org/2000/svg">
<g id="vuesax/bold/global-search">
<g id="global-search">
<path id="Vector" d="M27.2375 26.3945L26.3375 25.4945C26.8 24.7945 27.075 23.9445 27.075 23.0445C27.075 20.5695 25.075 18.5695 22.6 18.5695C20.125 18.5695 18.125 20.5695 18.125 23.0445C18.125 25.5195 20.125 27.5195 22.6 27.5195C23.5125 27.5195 24.35 27.2444 25.05 26.7819L25.95 27.682C26.125 27.857 26.3625 27.9445 26.5875 27.9445C26.825 27.9445 27.05 27.857 27.225 27.682C27.5875 27.3195 27.5875 26.7445 27.2375 26.3945Z" fill="#417360"/>
<path id="Vector_2" d="M2.53745 18.732C2.53745 18.7695 2.51245 18.8195 2.51245 18.857C3.66245 21.157 5.53745 23.0445 7.83745 24.182C7.87495 24.182 7.92495 24.157 7.96245 24.157C7.53745 22.707 7.21245 21.2195 6.97495 19.732C5.47495 19.482 3.98745 19.157 2.53745 18.732Z" fill="#417360"/>
<path id="Vector_3" d="M23.8375 8.48194C22.6625 6.01944 20.675 4.03194 18.225 2.86944C18.675 4.35694 19.05 5.88194 19.3 7.40694C20.825 7.65694 22.35 8.01944 23.8375 8.48194Z" fill="#417360"/>
<path id="Vector_4" d="M2.41248 8.48198C3.91248 8.03198 5.43748 7.65698 6.96248 7.40698C7.21248 5.91948 7.52498 4.44448 7.94998 2.99448C7.91248 2.99448 7.86248 2.96948 7.82498 2.96948C5.47498 4.13198 3.56248 6.09448 2.41248 8.48198Z" fill="#417360"/>
<path id="Vector_5" d="M17.275 7.14449C16.975 5.51949 16.6 3.89449 16.0625 2.31949C16.0375 2.23199 16.0375 2.15699 16.025 2.05699C15.1 1.83199 14.125 1.69449 13.125 1.69449C12.1125 1.69449 11.15 1.83199 10.2125 2.06949C10.2 2.15699 10.2125 2.23199 10.1875 2.33199C9.66248 3.90699 9.27498 5.51949 8.97498 7.14449C11.7375 6.84449 14.5125 6.84449 17.275 7.14449Z" fill="#417360"/>
<path id="Vector_6" d="M6.7 9.41946C5.0625 9.71946 3.4625 10.107 1.875 10.632C1.7875 10.657 1.7125 10.657 1.625 10.6695C1.3875 11.5945 1.25 12.5695 1.25 13.5695C1.25 14.582 1.3875 15.5445 1.625 16.482C1.7125 16.4945 1.7875 16.482 1.8875 16.507C3.4625 17.032 5.075 17.4195 6.7125 17.7195C6.4 14.957 6.4 12.182 6.7 9.41946Z" fill="#417360"/>
<path id="Vector_7" d="M24.625 10.6695C24.5375 10.6695 24.4625 10.657 24.3625 10.632C22.7875 10.107 21.1625 9.71946 19.5375 9.41946C19.85 12.182 19.85 14.957 19.5375 17.707C21.1625 17.407 22.7875 17.032 24.3625 16.4945C24.45 16.4695 24.525 16.482 24.625 16.4695C24.85 15.532 25 14.5695 25 13.557C25 12.5695 24.8625 11.607 24.625 10.6695Z" fill="#417360"/>
<path id="Vector_8" d="M8.97498 19.9944C9.27498 21.6319 9.64998 23.2444 10.1875 24.8194C10.2125 24.9069 10.2 24.9819 10.2125 25.0819C11.15 25.3069 12.1125 25.4444 13.125 25.4444C14.125 25.4444 15.1 25.3069 16.025 25.0694C16.0375 24.9819 16.0375 24.9069 16.0625 24.8069C16.5875 23.2319 16.975 21.6194 17.275 19.9819C15.9 20.1319 14.5125 20.2444 13.125 20.2444C11.7375 20.2444 10.35 20.1444 8.97498 19.9944Z" fill="#417360"/>
<path id="Vector_9" d="M8.6875 9.13195C8.3125 12.082 8.3125 15.057 8.6875 18.0195C11.6375 18.3945 14.6125 18.3945 17.575 18.0195C17.95 15.0695 17.95 12.0945 17.575 9.13195C14.6125 8.75695 11.6375 8.75695 8.6875 9.13195Z" fill="#417360"/>
</g>
</g>
</svg>
