<svg width="25" height="24" viewBox="0 0 25 24" fill="none" xmlns="http://www.w3.org/2000/svg">
<path d="M21.46 8.37009L14.53 2.83009C13.46 1.97009 11.73 1.97009 10.67 2.82009L3.74 8.37009C2.96 8.99009 2.46 10.3001 2.63 11.2801L3.96 19.2401C4.2 20.6601 5.56 21.8101 7 21.8101H18.2C19.63 21.8101 21 20.6501 21.24 19.2401L22.57 11.2801C22.73 10.3001 22.23 8.99009 21.46 8.37009ZM12.6 15.5001C11.22 15.5001 10.1 14.3801 10.1 13.0001C10.1 11.6201 11.22 10.5001 12.6 10.5001C13.98 10.5001 15.1 11.6201 15.1 13.0001C15.1 14.3801 13.98 15.5001 12.6 15.5001Z" fill="#4D7AEB"/>
</svg>
