<svg width="18" height="18" viewBox="0 0 18 18" fill="none" xmlns="http://www.w3.org/2000/svg">
<path d="M16.17 8.05506L15.1575 6.87006C14.97 6.64506 14.8125 6.22506 14.8125 5.92506V4.65006C14.8125 3.85506 14.16 3.20256 13.365 3.20256H12.09C11.79 3.20256 11.3625 3.04506 11.1375 2.85756L9.95253 1.84506C9.43503 1.40256 8.58753 1.40256 8.07003 1.84506L6.87003 2.85756C6.64503 3.04506 6.22503 3.20256 5.92503 3.20256H4.62753C3.83253 3.20256 3.18003 3.85506 3.18003 4.65006V5.92506C3.18003 6.21756 3.03003 6.63756 2.84253 6.86256L1.83003 8.05506C1.39503 8.58006 1.39503 9.42006 1.83003 9.93006L2.84253 11.1226C3.03003 11.3401 3.18003 11.7676 3.18003 12.0601V13.3426C3.18003 14.1376 3.83253 14.7901 4.62753 14.7901H5.93253C6.22503 14.7901 6.65253 14.9476 6.87753 15.1351L8.06253 16.1476C8.58003 16.5901 9.42753 16.5901 9.94503 16.1476L11.13 15.1351C11.355 14.9476 11.775 14.7901 12.075 14.7901H13.35C14.145 14.7901 14.7975 14.1376 14.7975 13.3426V12.0676C14.7975 11.7676 14.955 11.3476 15.1425 11.1226L16.155 9.93756C16.6125 9.42756 16.6125 8.58006 16.17 8.05506ZM8.43753 6.09756C8.43753 5.79006 8.69253 5.53506 9.00003 5.53506C9.30753 5.53506 9.56253 5.79006 9.56253 6.09756V9.72006C9.56253 10.0276 9.30753 10.2826 9.00003 10.2826C8.69253 10.2826 8.43753 10.0276 8.43753 9.72006V6.09756ZM9.00003 12.6526C8.58753 12.6526 8.25003 12.3151 8.25003 11.9026C8.25003 11.4901 8.58003 11.1526 9.00003 11.1526C9.41253 11.1526 9.75003 11.4901 9.75003 11.9026C9.75003 12.3151 9.42003 12.6526 9.00003 12.6526Z" fill="#4D7AEB"/>
</svg>
