<svg width="25" height="24" viewBox="0 0 25 24" fill="none" xmlns="http://www.w3.org/2000/svg">
<path d="M22.03 15.93C21.87 15.66 21.42 15.24 20.3 15.44C19.68 15.55 19.05 15.6 18.42 15.57C16.09 15.47 13.98 14.4 12.51 12.75C11.21 11.3 10.41 9.41 10.4 7.37C10.4 6.23 10.62 5.13 11.07 4.09C11.51 3.08 11.2 2.55 10.98 2.33C10.75 2.1 10.21 1.78 9.15 2.22C5.06 3.94 2.53 8.04 2.83 12.43C3.13 16.56 6.03 20.09 9.87 21.42C10.79 21.74 11.76 21.93 12.76 21.97C12.92 21.98 13.08 21.99 13.24 21.99C16.59 21.99 19.73 20.41 21.71 17.72C22.38 16.79 22.2 16.2 22.03 15.93Z" fill="#101828"/>
</svg>
