<svg width="18" height="18" viewBox="0 0 18 18" fill="none" xmlns="http://www.w3.org/2000/svg">
<path d="M14.895 6.0675C14.895 6.3825 14.8725 6.69001 14.835 6.98251C14.49 6.83251 14.115 6.75001 13.7175 6.75001C12.8025 6.75001 11.9925 7.1925 11.49 7.8675C10.98 7.1925 10.17 6.75001 9.255 6.75001C7.7175 6.75001 6.4725 8.0025 6.4725 9.555C6.4725 11.565 7.5375 13.1025 8.7225 14.145C8.685 14.1675 8.64751 14.175 8.61001 14.19C8.38501 14.2725 8.01 14.2725 7.785 14.19C5.8425 13.5225 1.5 10.7625 1.5 6.0675C1.5 3.9975 3.16499 2.32501 5.21999 2.32501C6.44249 2.32501 7.52249 2.91 8.19749 3.8175C8.87999 2.91 9.96 2.32501 11.175 2.32501C13.23 2.32501 14.895 3.9975 14.895 6.0675Z" stroke="#FBFFFB" stroke-width="1.5" stroke-linecap="round" stroke-linejoin="round"/>
<path d="M16.4999 9.55499C16.4999 13.065 13.2524 15.135 11.7974 15.63C11.6249 15.69 11.3474 15.69 11.1749 15.63C10.5524 15.42 9.59991 14.9175 8.72241 14.145C7.53741 13.1025 6.47241 11.565 6.47241 9.55499C6.47241 8.00249 7.71741 6.75 9.25491 6.75C10.1699 6.75 10.9799 7.19249 11.4899 7.86749C11.9924 7.19249 12.8024 6.75 13.7174 6.75C14.1149 6.75 14.4899 6.8325 14.8349 6.9825C15.8174 7.4175 16.4999 8.39999 16.4999 9.55499Z" stroke="#FBFFFB" stroke-width="1.5" stroke-linecap="round" stroke-linejoin="round"/>
</svg>
