<svg width="18" height="18" viewBox="0 0 18 18" fill="none" xmlns="http://www.w3.org/2000/svg">
<path d="M14.1 7.43262C13.2525 7.43262 12.495 7.84512 12.0225 8.47512C11.55 7.84512 10.7925 7.43262 9.94498 7.43262C8.51248 7.43262 7.34998 8.60262 7.34998 10.0426C7.34998 10.5976 7.43998 11.1151 7.58998 11.5876C8.32498 13.9201 10.605 15.3226 11.73 15.7051C11.8875 15.7576 12.15 15.7576 12.3075 15.7051C13.4325 15.3226 15.7125 13.9276 16.4475 11.5876C16.605 11.1076 16.6875 10.5976 16.6875 10.0426C16.695 8.60262 15.5325 7.43262 14.1 7.43262Z" fill="#4D7AEB"/>
<path d="M15.5625 6.25495C15.5625 6.42745 15.39 6.53995 15.225 6.49495C14.2125 6.23245 13.1025 6.44995 12.2625 7.04995C12.0975 7.16995 11.8725 7.16995 11.715 7.04995C11.1225 6.61495 10.4025 6.37495 9.645 6.37495C7.71 6.37495 6.135 7.95745 6.135 9.90745C6.135 12.0225 7.1475 13.605 8.1675 14.6625C8.22 14.715 8.175 14.805 8.1075 14.775C6.06 14.0775 1.5 11.1825 1.5 6.25495C1.5 4.07995 3.2475 2.32495 5.4075 2.32495C6.69 2.32495 7.8225 2.93995 8.535 3.89245C9.255 2.93995 10.3875 2.32495 11.6625 2.32495C13.815 2.32495 15.5625 4.07995 15.5625 6.25495Z" fill="#4D7AEB"/>
</svg>
