<svg width="30" height="31" viewBox="0 0 30 31" fill="none" xmlns="http://www.w3.org/2000/svg">
<g id="linkedin">
<g id="Icon">
<path d="M20 10.4445C21.9891 10.4445 23.8968 11.2346 25.3033 12.6412C26.7098 14.0477 27.5 15.9553 27.5 17.9445V26.6945H22.5V17.9445C22.5 17.2814 22.2366 16.6455 21.7678 16.1767C21.2989 15.7078 20.663 15.4445 20 15.4445C19.337 15.4445 18.7011 15.7078 18.2322 16.1767C17.7634 16.6455 17.5 17.2814 17.5 17.9445V26.6945H12.5V17.9445C12.5 15.9553 13.2902 14.0477 14.6967 12.6412C16.1032 11.2346 18.0109 10.4445 20 10.4445Z" fill="#417360"/>
<path d="M7.5 11.6945H2.5V26.6945H7.5V11.6945Z" fill="#417360"/>
<path d="M5 7.94445C6.38071 7.94445 7.5 6.82517 7.5 5.44445C7.5 4.06374 6.38071 2.94445 5 2.94445C3.61929 2.94445 2.5 4.06374 2.5 5.44445C2.5 6.82517 3.61929 7.94445 5 7.94445Z" fill="#417360"/>
</g>
</g>
</svg>
