<svg width="25" height="24" viewBox="0 0 25 24" fill="none" xmlns="http://www.w3.org/2000/svg">
<path d="M2.79999 3H22.8" stroke="#737373" stroke-width="1.5" stroke-miterlimit="10" stroke-linecap="round" stroke-linejoin="round"/>
<path d="M2.79999 9H11.8" stroke="#737373" stroke-width="1.5" stroke-miterlimit="10" stroke-linecap="round" stroke-linejoin="round"/>
<path d="M2.79999 15H8.79999" stroke="#737373" stroke-width="1.5" stroke-miterlimit="10" stroke-linecap="round" stroke-linejoin="round"/>
<path d="M2.79999 21H6.79999" stroke="#737373" stroke-width="1.5" stroke-miterlimit="10" stroke-linecap="round" stroke-linejoin="round"/>
<path d="M12.64 21.9999C13.8439 21.9999 14.82 21.0239 14.82 19.8199C14.82 18.6159 13.8439 17.6399 12.64 17.6399C11.436 17.6399 10.46 18.6159 10.46 19.8199C10.46 21.0239 11.436 21.9999 12.64 21.9999Z" stroke="#737373" stroke-width="1.5" stroke-linecap="round" stroke-linejoin="round"/>
<path d="M22.7999 18.3699V9.85993C22.7999 8.04993 21.6599 7.79993 20.5099 8.10993L16.1599 9.29993C15.3699 9.51993 14.8199 10.1399 14.8199 11.0499V12.57V13.59V19.82" stroke="#737373" stroke-width="1.5" stroke-linecap="round" stroke-linejoin="round"/>
<path d="M20.6199 20.5499C21.8239 20.5499 22.7999 19.5739 22.7999 18.3699C22.7999 17.166 21.8239 16.1899 20.6199 16.1899C19.416 16.1899 18.4399 17.166 18.4399 18.3699C18.4399 19.5739 19.416 20.5499 20.6199 20.5499Z" stroke="#737373" stroke-width="1.5" stroke-linecap="round" stroke-linejoin="round"/>
<path d="M14.8199 13.5999L22.7999 11.4199" stroke="#737373" stroke-width="1.5" stroke-linecap="round" stroke-linejoin="round"/>
</svg>
