<svg width="24" height="24" viewBox="0 0 24 24" fill="none" xmlns="http://www.w3.org/2000/svg">
<path d="M6.28003 22C8.00316 22 9.40003 20.6031 9.40003 18.88C9.40003 17.1569 8.00316 15.76 6.28003 15.76C4.55691 15.76 3.16003 17.1569 3.16003 18.88C3.16003 20.6031 4.55691 22 6.28003 22Z" stroke="#4D4D4D" stroke-width="1.5" stroke-linecap="round" stroke-linejoin="round"/>
<path d="M20.84 16.8V4.6C20.84 2 19.21 1.64 17.56 2.09L11.32 3.79C10.18 4.1 9.40002 5 9.40002 6.3V8.47V9.93V18.87" stroke="#4D4D4D" stroke-width="1.5" stroke-linecap="round" stroke-linejoin="round"/>
<path d="M17.72 19.92C19.4431 19.92 20.84 18.5231 20.84 16.8C20.84 15.0769 19.4431 13.68 17.72 13.68C15.9968 13.68 14.6 15.0769 14.6 16.8C14.6 18.5231 15.9968 19.92 17.72 19.92Z" stroke="#4D4D4D" stroke-width="1.5" stroke-linecap="round" stroke-linejoin="round"/>
<path d="M9.40002 9.51999L20.84 6.39999" stroke="#4D4D4D" stroke-width="1.5" stroke-linecap="round" stroke-linejoin="round"/>
</svg>
