<svg width="25" height="24" viewBox="0 0 25 24" fill="none" xmlns="http://www.w3.org/2000/svg">
<path d="M18.73 12.25C19.01 12.25 19.25 12.01 19.23 11.73C18.96 8.1 15.94 5.25 12.25 5.25C8.56 5.25 5.54 8.1 5.27 11.73C5.25 12.01 5.49 12.25 5.77 12.25H18.73Z" fill="#101828"/>
<path d="M20.25 15.75H4.25C3.84 15.75 3.5 15.41 3.5 15C3.5 14.59 3.84 14.25 4.25 14.25H20.25C20.66 14.25 21 14.59 21 15C21 15.41 20.66 15.75 20.25 15.75Z" fill="#101828"/>
<path d="M18.25 18.75H6.25C5.84 18.75 5.5 18.41 5.5 18C5.5 17.59 5.84 17.25 6.25 17.25H18.25C18.66 17.25 19 17.59 19 18C19 18.41 18.66 18.75 18.25 18.75Z" fill="#101828"/>
<path d="M15.25 21.25H9.25C9.11614 21.25 9 21.1339 9 21C9 20.8661 9.11614 20.75 9.25 20.75H15.25C15.3839 20.75 15.5 20.8661 15.5 21C15.5 21.1339 15.3839 21.25 15.25 21.25Z" fill="#101828" stroke="#2D2D2D"/>
</svg>
