<svg width="25" height="24" viewBox="0 0 25 24" fill="none" xmlns="http://www.w3.org/2000/svg">
<path opacity="0.4" d="M22.8 3.75H2.8C2.39 3.75 2.05 3.41 2.05 3C2.05 2.59 2.39 2.25 2.8 2.25H22.8C23.21 2.25 23.55 2.59 23.55 3C23.55 3.41 23.21 3.75 22.8 3.75Z" fill="#4D7AEB"/>
<path opacity="0.4" d="M11.8 9.75H2.8C2.39 9.75 2.05 9.41 2.05 9C2.05 8.59 2.39 8.25 2.8 8.25H11.8C12.21 8.25 12.55 8.59 12.55 9C12.55 9.41 12.21 9.75 11.8 9.75Z" fill="#4D7AEB"/>
<path opacity="0.4" d="M8.8 15.75H2.8C2.39 15.75 2.05 15.41 2.05 15C2.05 14.59 2.39 14.25 2.8 14.25H8.8C9.21 14.25 9.55 14.59 9.55 15C9.55 15.41 9.21 15.75 8.8 15.75Z" fill="#4D7AEB"/>
<path opacity="0.4" d="M6.8 21.75H2.8C2.39 21.75 2.05 21.41 2.05 21C2.05 20.59 2.39 20.25 2.8 20.25H6.8C7.21 20.25 7.55 20.59 7.55 21C7.55 21.41 7.21 21.75 6.8 21.75Z" fill="#4D7AEB"/>
<path d="M22.66 7.67994C22.07 7.22994 21.26 7.13997 20.31 7.39997L15.96 8.57997C14.79 8.89997 14.07 9.84994 14.07 11.0499V13.5999V17.28C13.65 17.04 13.16 16.89 12.64 16.89C11.03 16.89 9.70999 18.2 9.70999 19.82C9.70999 21.43 11.02 22.7499 12.64 22.7499C14.26 22.7499 15.57 21.44 15.57 19.82V14.1699L22.05 12.4V15.83C21.63 15.59 21.14 15.44 20.62 15.44C19.01 15.44 17.69 16.7499 17.69 18.3699C17.69 19.9799 19 21.2999 20.62 21.2999C22.24 21.2999 23.55 19.9899 23.55 18.3699V11.4199V9.86994C23.55 8.85994 23.25 8.11994 22.66 7.67994ZM12.64 21.2499C11.85 21.2499 11.21 20.61 11.21 19.82C11.21 19.03 11.85 18.39 12.64 18.39C13.43 18.39 14.07 19.03 14.07 19.82C14.07 20.61 13.43 21.2499 12.64 21.2499ZM20.62 19.7999C19.83 19.7999 19.19 19.1599 19.19 18.3699C19.19 17.5799 19.83 16.94 20.62 16.94C21.41 16.94 22.05 17.5799 22.05 18.3699C22.05 19.1599 21.41 19.7999 20.62 19.7999Z" fill="#4D7AEB"/>
</svg>
