<svg width="18" height="18" viewBox="0 0 18 18" fill="none" xmlns="http://www.w3.org/2000/svg">
<path d="M14.505 10.8675L13.755 9.6225C13.5975 9.345 13.455 8.82 13.455 8.5125V6.615C13.455 4.8525 12.42 3.33 10.9275 2.6175C10.5375 1.9275 9.81746 1.5 8.99246 1.5C8.17496 1.5 7.43996 1.9425 7.04996 2.64C5.58746 3.3675 4.57496 4.875 4.57496 6.615V8.5125C4.57496 8.82 4.43246 9.345 4.27496 9.615L3.51746 10.8675C3.21746 11.37 3.14996 11.925 3.33746 12.435C3.51746 12.9375 3.94496 13.3275 4.49996 13.515C5.95496 14.01 7.48496 14.25 9.01496 14.25C10.545 14.25 12.075 14.01 13.53 13.5225C14.055 13.35 14.46 12.9525 14.655 12.435C14.85 11.9175 14.7975 11.3475 14.505 10.8675Z" fill="#4D7AEB"/>
<path d="M11.1225 15.0075C10.8075 15.8775 9.97501 16.5 9.00001 16.5C8.40751 16.5 7.82251 16.26 7.41001 15.8325C7.17001 15.6075 6.99001 15.3075 6.88501 15C6.98251 15.015 7.08001 15.0225 7.18501 15.0375C7.35751 15.06 7.53751 15.0825 7.71751 15.0975C8.14501 15.135 8.58001 15.1575 9.01501 15.1575C9.44251 15.1575 9.87001 15.135 10.29 15.0975C10.4475 15.0825 10.605 15.075 10.755 15.0525C10.875 15.0375 10.995 15.0225 11.1225 15.0075Z" fill="#4D7AEB"/>
</svg>
