<svg width="25" height="24" viewBox="0 0 25 24" fill="none" xmlns="http://www.w3.org/2000/svg">
<path opacity="0.4" d="M2.40002 12.8799V11.1199C2.40002 10.0799 3.25002 9.21994 4.30002 9.21994C6.11002 9.21994 6.85002 7.93994 5.94002 6.36994C5.42002 5.46994 5.73002 4.29994 6.64002 3.77994L8.37002 2.78994C9.16002 2.31994 10.18 2.59994 10.65 3.38994L10.76 3.57994C11.66 5.14994 13.14 5.14994 14.05 3.57994L14.16 3.38994C14.63 2.59994 15.65 2.31994 16.44 2.78994L18.17 3.77994C19.08 4.29994 19.39 5.46994 18.87 6.36994C17.96 7.93994 18.7 9.21994 20.51 9.21994C21.55 9.21994 22.41 10.0699 22.41 11.1199V12.8799C22.41 13.9199 21.56 14.7799 20.51 14.7799C18.7 14.7799 17.96 16.0599 18.87 17.6299C19.39 18.5399 19.08 19.6999 18.17 20.2199L16.44 21.2099C15.65 21.6799 14.63 21.3999 14.16 20.6099L14.05 20.4199C13.15 18.8499 11.67 18.8499 10.76 20.4199L10.65 20.6099C10.18 21.3999 9.16002 21.6799 8.37002 21.2099L6.64002 20.2199C5.73002 19.6999 5.42002 18.5299 5.94002 17.6299C6.85002 16.0599 6.11002 14.7799 4.30002 14.7799C3.25002 14.7799 2.40002 13.9199 2.40002 12.8799Z" fill="#4D7AEB"/>
<path d="M12.4 15.25C14.195 15.25 15.65 13.7949 15.65 12C15.65 10.2051 14.195 8.75 12.4 8.75C10.6051 8.75 9.15002 10.2051 9.15002 12C9.15002 13.7949 10.6051 15.25 12.4 15.25Z" fill="#4D7AEB"/>
</svg>
