<svg width="18" height="18" viewBox="0 0 18 18" fill="none" xmlns="http://www.w3.org/2000/svg">
<path d="M15.6825 8.33999V5.04749C15.6825 4.43249 15.2175 3.73499 14.64 3.50249L10.4625 1.79249C9.525 1.40999 8.4675 1.40999 7.53 1.79249L3.3525 3.50249C2.7825 3.73499 2.3175 4.43249 2.3175 5.04749V8.33999C2.3175 12.0075 4.98 15.4425 8.6175 16.4475C8.865 16.515 9.135 16.515 9.3825 16.4475C13.02 15.4425 15.6825 12.0075 15.6825 8.33999ZM9.5625 9.65249V11.625C9.5625 11.9325 9.3075 12.1875 9 12.1875C8.6925 12.1875 8.4375 11.9325 8.4375 11.625V9.65249C7.68 9.41249 7.125 8.70749 7.125 7.87499C7.125 6.83999 7.965 5.99999 9 5.99999C10.035 5.99999 10.875 6.83999 10.875 7.87499C10.875 8.71499 10.32 9.41249 9.5625 9.65249Z" fill="#4D7AEB"/>
</svg>
