<svg width="18" height="18" viewBox="0 0 18 18" fill="none" xmlns="http://www.w3.org/2000/svg">
<path d="M12.75 2.25H5.25C3 2.25 1.5 3.375 1.5 6V11.25C1.5 13.875 3 15 5.25 15H7.9275C8.37 15 8.73 14.61 8.67 14.1675C8.595 13.635 8.61 13.08 8.7225 12.51C9.12 10.56 10.725 9.0075 12.69 8.685C13.6725 8.5275 14.61 8.6625 15.435 9.0225C15.9375 9.24 16.5 8.895 16.5 8.3475V6C16.5 3.375 15 2.25 12.75 2.25ZM13.1025 6.4425L10.755 8.3175C10.26 8.715 9.63 8.91 9 8.91C8.37 8.91 7.7325 8.715 7.245 8.3175L4.8975 6.4425C4.6575 6.2475 4.62 5.895 4.8075 5.6475C5.0025 5.4075 5.355 5.3625 5.595 5.5575L7.9425 7.4325C8.5125 7.89 9.48 7.89 10.05 7.4325L12.3975 5.5575C12.6375 5.3625 12.9975 5.4 13.185 5.6475C13.38 5.895 13.3425 6.2475 13.1025 6.4425Z" fill="#4D7AEB"/>
<path d="M13.5 9.75C11.43 9.75 9.75 11.4225 9.75 13.5C9.75 15.57 11.43 17.25 13.5 17.25C15.5775 17.25 17.25 15.57 17.25 13.5C17.25 11.4225 15.5775 9.75 13.5 9.75ZM15.0375 13.1625L14.76 13.4325L13.125 15.075C13.05 15.1425 12.9075 15.2175 12.8025 15.2325L12.0675 15.3375C11.805 15.375 11.6175 15.1875 11.655 14.925L11.76 14.19C11.775 14.085 11.8425 13.9425 11.9175 13.8675L13.5525 12.24L13.8225 11.9625C14.0025 11.7825 14.205 11.6625 14.415 11.6625C14.595 11.6625 14.7975 11.745 15.0225 11.9625C15.525 12.45 15.3675 12.8325 15.0375 13.1625Z" fill="#4D7AEB"/>
</svg>
