<svg width="18" height="18" viewBox="0 0 18 18" fill="none" xmlns="http://www.w3.org/2000/svg">
<path d="M15.2699 9.54743C14.9924 9.54743 14.7599 9.33743 14.7299 9.05993C14.5499 7.40993 13.6649 5.92493 12.2999 4.97993C12.0524 4.80743 11.9924 4.46993 12.1649 4.22243C12.3374 3.97493 12.6749 3.91493 12.9224 4.08743C14.5499 5.21993 15.5999 6.98993 15.8174 8.94743C15.8474 9.24743 15.6299 9.51743 15.3299 9.54743C15.3074 9.54743 15.2924 9.54743 15.2699 9.54743Z" fill="#4D7AEB"/>
<path d="M2.80497 9.58491C2.78997 9.58491 2.76747 9.58491 2.75247 9.58491C2.45247 9.55491 2.23497 9.28491 2.26497 8.98491C2.46747 7.02741 3.50247 5.25741 5.11497 4.11741C5.35497 3.94491 5.69997 4.00491 5.87247 4.24491C6.04497 4.49241 5.98497 4.82991 5.74497 5.00241C4.39497 5.96241 3.51747 7.44741 3.35247 9.08991C3.32247 9.37491 3.08247 9.58491 2.80497 9.58491Z" fill="#4D7AEB"/>
<path d="M11.9925 15.825C11.07 16.2675 10.08 16.4925 9.04495 16.4925C7.96495 16.4925 6.93745 16.2525 5.97745 15.765C5.70745 15.6375 5.60245 15.3075 5.73745 15.0375C5.86495 14.7675 6.19495 14.6625 6.46495 14.79C6.93745 15.03 7.43995 15.195 7.94995 15.2925C8.63995 15.4275 9.34495 15.435 10.035 15.315C10.545 15.225 11.0475 15.0675 11.5125 14.8425C11.79 14.715 12.12 14.82 12.24 15.0975C12.375 15.3675 12.27 15.6975 11.9925 15.825Z" fill="#4D7AEB"/>
<path d="M9.03749 1.50757C7.87499 1.50757 6.92249 2.45257 6.92249 3.62257C6.92249 4.79257 7.86749 5.73757 9.03749 5.73757C10.2075 5.73757 11.1525 4.79257 11.1525 3.62257C11.1525 2.45257 10.2075 1.50757 9.03749 1.50757Z" fill="#4D7AEB"/>
<path d="M3.78749 10.4026C2.62499 10.4026 1.67249 11.3476 1.67249 12.5176C1.67249 13.6876 2.61749 14.6326 3.78749 14.6326C4.95749 14.6326 5.90249 13.6876 5.90249 12.5176C5.90249 11.3476 4.94999 10.4026 3.78749 10.4026Z" fill="#4D7AEB"/>
<path d="M14.2125 10.4026C13.05 10.4026 12.0975 11.3476 12.0975 12.5176C12.0975 13.6876 13.0425 14.6326 14.2125 14.6326C15.3825 14.6326 16.3275 13.6876 16.3275 12.5176C16.3275 11.3476 15.3825 10.4026 14.2125 10.4026Z" fill="#4D7AEB"/>
</svg>
