<svg width="30" height="31" viewBox="0 0 30 31" fill="none" xmlns="http://www.w3.org/2000/svg">
<g id="twitter">
<path id="Icon" d="M28.75 4.19444C27.553 5.03879 26.2276 5.68458 24.825 6.10694C24.0722 5.24133 23.0717 4.6278 21.9588 4.34935C20.8459 4.07089 19.6744 4.14093 18.6026 4.55001C17.5308 4.95908 16.6106 5.68744 15.9662 6.63658C15.3219 7.58573 14.9846 8.70986 15 9.85694V11.1069C12.8033 11.1639 10.6266 10.6767 8.66376 9.68875C6.70093 8.70079 5.0129 7.24273 3.75 5.44444C3.75 5.44444 -1.25 16.6944 10 21.6944C7.42566 23.4419 4.35895 24.3181 1.25 24.1944C12.5 30.4444 26.25 24.1944 26.25 9.81944C26.2488 9.47126 26.2154 9.12393 26.15 8.78194C27.4258 7.52381 28.326 5.93533 28.75 4.19444Z" fill="#417360"/>
</g>
</svg>
