<svg width="30" height="31" viewBox="0 0 30 31" fill="none" xmlns="http://www.w3.org/2000/svg">
<path d="M11.25 2.94446C7.975 2.94446 5.3125 5.60696 5.3125 8.88196C5.3125 12.0945 7.825 14.6945 11.1 14.807C11.2 14.7945 11.3 14.7945 11.375 14.807C11.4 14.807 11.4125 14.807 11.4375 14.807C11.45 14.807 11.45 14.807 11.4625 14.807C14.6625 14.6945 17.175 12.0945 17.1875 8.88196C17.1875 5.60696 14.525 2.94446 11.25 2.94446Z" fill="#417360"/>
<path d="M17.6 18.132C14.1125 15.807 8.42495 15.807 4.91245 18.132C3.32495 19.1945 2.44995 20.632 2.44995 22.1695C2.44995 23.707 3.32495 25.132 4.89995 26.182C6.64995 27.357 8.94995 27.9445 11.25 27.9445C13.55 27.9445 15.85 27.357 17.6 26.182C19.175 25.1195 20.05 23.6945 20.05 22.1445C20.0375 20.607 19.175 19.182 17.6 18.132Z" fill="#417360"/>
<path d="M24.9875 9.61948C25.1875 12.0445 23.4625 14.1695 21.075 14.457C21.0625 14.457 21.0625 14.457 21.05 14.457H21.0125C20.9375 14.457 20.8625 14.457 20.8 14.482C19.5875 14.5445 18.475 14.157 17.6375 13.4445C18.925 12.2945 19.6625 10.5695 19.5125 8.69448C19.425 7.68198 19.075 6.75698 18.55 5.96948C19.025 5.73198 19.575 5.58198 20.1375 5.53198C22.5875 5.31948 24.775 7.14448 24.9875 9.61948Z" fill="#417360"/>
<path d="M27.4875 21.182C27.3875 22.3945 26.6125 23.4445 25.3126 24.157C24.0625 24.8445 22.4875 25.1695 20.925 25.132C21.825 24.3195 22.35 23.307 22.45 22.232C22.575 20.682 21.8376 19.1945 20.3626 18.007C19.5251 17.3445 18.55 16.8195 17.4875 16.432C20.25 15.632 23.7251 16.1695 25.8626 17.8945C27.0126 18.8195 27.6 19.982 27.4875 21.182Z" fill="#417360"/>
</svg>
