<svg width="18" height="18" viewBox="0 0 18 18" fill="none" xmlns="http://www.w3.org/2000/svg">
<g opacity="0.7">
<path d="M13.5 12.5625C13.38 12.5625 13.2675 12.525 13.1625 12.45C12.915 12.2625 12.8625 11.91 13.05 11.6625C13.995 10.4025 14.1975 8.72999 13.59 7.28249C13.47 6.99749 13.605 6.66749 13.89 6.54749C14.175 6.42749 14.505 6.56249 14.625 6.84749C15.39 8.66249 15.1275 10.77 13.95 12.345C13.8375 12.4875 13.6725 12.5625 13.5 12.5625Z" fill="#262626"/>
<path d="M14.8725 14.4374C14.7525 14.4374 14.64 14.3999 14.535 14.3249C14.2875 14.1374 14.235 13.7849 14.4225 13.5374C16.0275 11.3999 16.38 8.5349 15.345 6.06741C15.225 5.78241 15.36 5.45241 15.645 5.33241C15.93 5.21241 16.26 5.34741 16.38 5.63241C17.5725 8.4674 17.1675 11.7524 15.3225 14.2124C15.2175 14.3624 15.045 14.4374 14.8725 14.4374Z" fill="#262626"/>
<path opacity="0.4" d="M10.53 9.72002C11.0025 9.24752 11.8125 9.58502 11.8125 10.2525V12.45C11.8125 13.74 11.3475 14.7075 10.515 15.1725C10.1775 15.36 9.80249 15.45 9.41249 15.45C8.81249 15.45 8.16749 15.2475 7.50749 14.835L7.02749 14.535C6.62249 14.28 6.55499 13.71 6.89249 13.3725L10.53 9.72002Z" fill="#262626"/>
<path opacity="0.4" d="M10.515 2.83504C9.675 2.37004 8.6025 2.49004 7.5075 3.17254L5.3175 4.54504C5.1675 4.63504 4.995 4.68754 4.8225 4.68754H4.125H3.75C1.935 4.68754 0.9375 5.68504 0.9375 7.50004V10.5C0.9375 12.315 1.935 13.3125 3.75 13.3125H4.125H4.6875L11.8125 6.18754V5.55754C11.8125 4.26754 11.3475 3.30004 10.515 2.83504Z" fill="#262626"/>
<path d="M16.3275 1.67241C16.1025 1.44741 15.735 1.44741 15.51 1.67241L1.67247 15.5174C1.44747 15.7424 1.44747 16.1099 1.67247 16.3349C1.78497 16.4399 1.92747 16.4999 2.07747 16.4999C2.22747 16.4999 2.36997 16.4399 2.48247 16.3274L16.3275 2.48241C16.56 2.25741 16.56 1.89741 16.3275 1.67241Z" fill="#262626"/>
</g>
</svg>
