<svg width="380" height="170" viewBox="0 0 380 170" fill="none" xmlns="http://www.w3.org/2000/svg">
<g clip-path="url(#clip0_145_2242)">
<path d="M308.685 162.932C315.371 135.485 281.159 120.778 282.607 97.0541C284.055 73.3306 304.691 43.138 272.463 38.2927C240.236 33.4464 241.7 -3.23154 215.809 25.7331C189.919 54.6978 174.344 -7.8082 148.535 3.894C122.726 15.5962 127.727 44.0418 105.249 57.2558C82.772 70.4697 108.067 85.0046 94.0995 102.469C80.1332 119.933 65.0096 139.667 72.3786 162.932H308.685Z" fill="#EEF7EB"/>
<path d="M206.3 23.1227C203.684 26.9662 196.513 26.1108 192.053 21.7079C187.594 17.3049 182.957 6.11268 185.574 2.26917C188.191 -1.57434 198.64 -0.787661 204.363 6.56004C208.309 11.6245 208.917 19.2792 206.3 23.1217V23.1227Z" fill="#EEF7EB"/>
<path d="M190.532 170.001C255.787 170.001 308.685 166.836 308.685 162.932C308.685 159.028 255.787 155.863 190.532 155.863C125.278 155.863 72.3794 159.028 72.3794 162.932C72.3794 166.836 125.278 170.001 190.532 170.001Z" fill="#D8E7D3"/>
<path d="M189.095 166.968C220.761 166.968 246.431 165.354 246.431 163.363C246.431 161.372 220.761 159.758 189.095 159.758C157.429 159.758 131.758 161.372 131.758 163.363C131.758 165.354 157.429 166.968 189.095 166.968Z" fill="#BBCEC2"/>
<path d="M237.692 98.2458H143.272V162.724H237.692V98.2458Z" fill="#95B1A3"/>
<path d="M237.692 149.002H143.272V162.724H237.692V149.002Z" fill="#709484"/>
<path d="M237.692 158.319H143.27V162.727H237.692V158.319Z" fill="#417360"/>
<path d="M237.692 98.2458H143.27V107.848H237.692V98.2458Z" fill="#709484"/>
<path d="M212.224 115.326V140.86C212.224 141.532 211.684 142.071 211.012 142.071H170.052C169.38 142.071 168.84 141.532 168.84 140.86V115.326C168.84 114.66 169.38 114.115 170.052 114.115H211.012C211.684 114.115 212.224 114.66 212.224 115.326Z" fill="#CEDDD1"/>
<path d="M237.692 100.496H146.075V158.319H143.27V98.2458H237.692V100.496Z" fill="#417360"/>
<g opacity="0.47">
<path d="M237.692 98.2458H234.385V162.601H237.692V98.2458Z" fill="#CEDDD1"/>
</g>
<path d="M244.458 90.2234H136.606V98.2457H244.458V90.2234Z" fill="#709484"/>
<path d="M218.012 75.1726H190.532H163.053L136.606 90.2245H190.532H244.458L218.012 75.1726Z" fill="#CEDDD1"/>
<path d="M166.632 82.5536L167.889 81.2449C168.003 81.1257 168.141 81.0621 168.281 81.0621H210.565C210.732 81.0621 210.894 81.153 211.018 81.3176L212.006 82.6263C212.461 83.2302 212.168 84.334 211.552 84.334H167.025C166.369 84.334 166.101 83.109 166.633 82.5536H166.632Z" fill="#417360"/>
<path d="M212.224 133.946V140.86C212.224 141.532 211.684 142.071 211.012 142.071H170.052C169.38 142.071 168.84 141.532 168.84 140.86V115.326C168.84 114.66 169.38 114.115 170.052 114.115H175.584V126.675C175.584 130.686 178.844 133.946 182.855 133.946H212.224Z" fill="#709484"/>
<path d="M78.0322 147.768C78.368 147.768 78.6402 147.496 78.6402 147.16C78.6402 146.824 78.368 146.552 78.0322 146.552C77.6965 146.552 77.4243 146.824 77.4243 147.16C77.4243 147.496 77.6965 147.768 78.0322 147.768Z" fill="white"/>
<path d="M91.1498 137.619C91.5672 137.446 91.7654 136.968 91.5925 136.55C91.4196 136.133 90.9412 135.935 90.5238 136.108C90.1064 136.281 89.9082 136.759 90.0811 137.176C90.254 137.594 90.7325 137.792 91.1498 137.619Z" fill="white"/>
<path d="M139.928 85.0096C140.38 85.0096 140.746 84.6434 140.746 84.1916C140.746 83.7399 140.38 83.3736 139.928 83.3736C139.476 83.3736 139.11 83.7399 139.11 84.1916C139.11 84.6434 139.476 85.0096 139.928 85.0096Z" fill="white"/>
<path d="M83.7672 154.103C83.7672 154.341 83.5743 154.534 83.336 154.534C83.0977 154.534 82.9048 154.341 82.9048 154.103C82.9048 153.865 83.0977 153.672 83.336 153.672C83.5743 153.672 83.7672 153.865 83.7672 154.103Z" fill="white"/>
<path d="M86.8047 129.078C87.0429 129.078 87.236 128.885 87.236 128.646C87.236 128.408 87.0429 128.215 86.8047 128.215C86.5666 128.215 86.3735 128.408 86.3735 128.646C86.3735 128.885 86.5666 129.078 86.8047 129.078Z" fill="white"/>
<path d="M107.902 136.218C108.39 136.218 108.785 135.823 108.785 135.335C108.785 134.847 108.39 134.451 107.902 134.451C107.414 134.451 107.018 134.847 107.018 135.335C107.018 135.823 107.414 136.218 107.902 136.218Z" fill="white"/>
<path d="M125.124 109.616C125.612 109.616 126.008 109.22 126.008 108.732C126.008 108.244 125.612 107.848 125.124 107.848C124.636 107.848 124.241 108.244 124.241 108.732C124.241 109.22 124.636 109.616 125.124 109.616Z" fill="white"/>
<path d="M100.936 86.5122C101.162 86.5122 101.346 86.3287 101.346 86.1022C101.346 85.8758 101.162 85.6922 100.936 85.6922C100.709 85.6922 100.526 85.8758 100.526 86.1022C100.526 86.3287 100.709 86.5122 100.936 86.5122Z" fill="white"/>
<path d="M135.158 65.8809C135.855 65.8809 136.42 65.3162 136.42 64.6196C136.42 63.923 135.855 63.3583 135.158 63.3583C134.462 63.3583 133.897 63.923 133.897 64.6196C133.897 65.3162 134.462 65.8809 135.158 65.8809Z" fill="white"/>
<path d="M149.566 70.0132C149.566 70.3152 149.321 70.5596 149.019 70.5596C148.718 70.5596 148.473 70.3152 148.473 70.0132C148.473 69.7113 148.718 69.4669 149.019 69.4669C149.321 69.4669 149.566 69.7113 149.566 70.0132Z" fill="white"/>
<path d="M177.265 55.3704C177.265 55.6723 177.021 55.9167 176.719 55.9167C176.417 55.9167 176.172 55.6723 176.172 55.3704C176.172 55.0684 176.417 54.824 176.719 54.824C177.021 54.824 177.265 55.0684 177.265 55.3704Z" fill="white"/>
<path d="M153.07 44.3619C153.372 44.3619 153.617 44.1173 153.617 43.8156C153.617 43.5138 153.372 43.2692 153.07 43.2692C152.769 43.2692 152.524 43.5138 152.524 43.8156C152.524 44.1173 152.769 44.3619 153.07 44.3619Z" fill="white"/>
<path d="M158.477 62.2959C158.778 62.2959 159.023 62.0513 159.023 61.7496C159.023 61.4478 158.778 61.2032 158.477 61.2032C158.175 61.2032 157.93 61.4478 157.93 61.7496C157.93 62.0513 158.175 62.2959 158.477 62.2959Z" fill="white"/>
<path d="M145.563 41.3791C145.894 41.0482 145.894 40.5117 145.563 40.1809C145.233 39.85 144.696 39.85 144.365 40.1809C144.034 40.5117 144.034 41.0482 144.365 41.3791C144.696 41.71 145.233 41.71 145.563 41.3791Z" fill="white"/>
<path d="M169.394 50.8522C170.23 50.8522 170.907 50.175 170.907 49.3395C170.907 48.504 170.23 47.8267 169.394 47.8267C168.559 47.8267 167.881 48.504 167.881 49.3395C167.881 50.175 168.559 50.8522 169.394 50.8522Z" fill="white"/>
<path d="M228.514 75.1948C228.852 75.1948 229.127 74.9204 229.127 74.5819C229.127 74.2433 228.852 73.9689 228.514 73.9689C228.175 73.9689 227.901 74.2433 227.901 74.5819C227.901 74.9204 228.175 75.1948 228.514 75.1948Z" fill="white"/>
<path d="M231.432 50.8513C231.77 50.8513 232.045 50.5768 232.045 50.2383C232.045 49.8997 231.77 49.6253 231.432 49.6253C231.093 49.6253 230.819 49.8997 230.819 50.2383C230.819 50.5768 231.093 50.8513 231.432 50.8513Z" fill="white"/>
<path d="M213.453 56.5306C213.453 56.8689 213.178 57.1436 212.84 57.1436C212.502 57.1436 212.227 56.8689 212.227 56.5306C212.227 56.1923 212.502 55.9177 212.84 55.9177C213.178 55.9177 213.453 56.1923 213.453 56.5306Z" fill="white"/>
<path d="M252.74 58.3706C253.079 58.3706 253.353 58.0962 253.353 57.7577C253.353 57.4191 253.079 57.1447 252.74 57.1447C252.402 57.1447 252.127 57.4191 252.127 57.7577C252.127 58.0962 252.402 58.3706 252.74 58.3706Z" fill="white"/>
<path d="M266.431 118.185C266.78 117.837 266.78 117.271 266.431 116.923C266.083 116.574 265.517 116.574 265.169 116.923C264.82 117.271 264.82 117.837 265.169 118.185C265.517 118.534 266.083 118.534 266.431 118.185Z" fill="white"/>
<path d="M239.313 70.2947C239.804 70.2886 240.197 69.8854 240.191 69.3941C240.185 68.9027 239.782 68.5094 239.29 68.5155C238.799 68.5216 238.406 68.9248 238.412 69.4161C238.418 69.9074 238.821 70.3008 239.313 70.2947Z" fill="white"/>
<path d="M298.099 145.76C298.209 145.294 297.921 144.827 297.454 144.717C296.988 144.607 296.521 144.895 296.411 145.362C296.301 145.828 296.589 146.295 297.056 146.405C297.522 146.515 297.989 146.227 298.099 145.76Z" fill="white"/>
<path d="M190.515 53.9424C190.516 54.009 190.52 54.0696 190.521 54.1363C190.535 54.6937 190.501 55.2501 190.426 55.8076C190.417 55.846 190.413 55.8833 190.408 55.9207C190.351 56.2893 190.28 56.6528 190.191 57.0194C189.63 59.3279 188.612 61.3891 187.431 63.3563C186.891 64.252 186.32 65.1195 185.721 65.9607C184.486 67.7017 183.139 69.3386 181.71 70.9069C181.598 71.0312 181.492 71.1089 181.376 71.1463C181.359 71.1523 181.344 71.1574 181.327 71.1594C181.211 71.1826 181.082 71.1705 180.921 71.12C176.87 69.7719 172.933 68.1197 169.351 65.5426C168.786 65.1316 168.236 64.7014 167.716 64.2399C166.683 63.326 165.762 62.2777 165.045 61.0104C164.703 60.3954 164.445 59.746 164.272 59.0805C163.468 55.9702 164.527 52.5246 166.947 50.73C167.214 50.5281 167.502 50.3463 167.804 50.1898C168.296 49.9393 168.82 49.7586 169.088 49.6455C169.35 49.5798 169.608 49.5283 169.864 49.4819C171.928 49.1385 173.763 49.5051 175.547 50.421C175.841 50.5715 175.973 50.5422 176.156 50.2635C177.577 48.0913 179.47 46.6745 181.972 46.2695C184.2 45.908 186.564 46.8643 188.232 48.5972C188.855 49.2466 189.378 50.007 189.759 50.8442C190.227 51.8742 190.459 52.9073 190.514 53.9414L190.515 53.9424Z" fill="#E0144C"/>
<path d="M180.988 48.2317C181.061 48.4357 180.953 48.6599 180.749 48.7316C180.545 48.8043 180.321 48.6972 180.25 48.4932C180.177 48.2892 180.284 48.065 180.488 47.9933C180.692 47.9206 180.916 48.0277 180.988 48.2317Z" fill="#FF155D"/>
<path d="M184.7 48.6195C184.947 49.3142 184.583 50.0777 183.887 50.3241C183.192 50.5705 182.429 50.2069 182.183 49.5112C181.936 48.8164 182.3 48.0529 182.996 47.8065C183.691 47.5601 184.454 47.9237 184.7 48.6195Z" fill="#FF155D"/>
<path d="M185.721 65.9617C184.486 67.7027 183.139 69.3396 181.71 70.9079C181.598 71.0322 181.492 71.1099 181.376 71.1473C181.359 71.1534 181.344 71.1584 181.327 71.1604C181.211 71.1836 181.082 71.1715 180.921 71.121C176.87 69.7729 172.933 68.1208 169.351 65.5436C168.786 65.1326 168.236 64.7024 167.716 64.2409C166.683 63.327 165.762 62.2787 165.045 61.0114C164.703 60.3964 164.445 59.747 164.272 59.0815C163.468 55.9712 164.527 52.5256 166.947 50.731C166.132 54.2857 165.893 59.2118 169.382 62.4726C173.961 66.7574 180.439 67.3341 185.721 65.9617Z" fill="#BA1C4D"/>
<path d="M192.482 88.8834C201.759 88.8834 209.28 81.3627 209.28 72.0855C209.28 62.8082 201.759 55.2875 192.482 55.2875C183.205 55.2875 175.684 62.8082 175.684 72.0855C175.684 81.3627 183.205 88.8834 192.482 88.8834Z" fill="#FCD554"/>
<path d="M202.408 82.0102C207.889 76.5288 207.889 67.6417 202.408 62.1603C196.927 56.679 188.04 56.6789 182.558 62.1603C177.077 67.6417 177.077 76.5288 182.558 82.0102C188.04 87.4916 196.927 87.4916 202.408 82.0102Z" fill="#FF8243"/>
<path d="M201.374 80.9755C206.284 76.0656 206.284 68.105 201.374 63.195C196.464 58.2851 188.504 58.2851 183.594 63.195C178.684 68.105 178.684 76.0656 183.594 80.9755C188.504 85.8854 196.464 85.8854 201.374 80.9755Z" fill="#FFA942"/>
<g opacity="0.75">
<path d="M204.673 75.1726C203.093 81.4408 196.929 85.5559 190.445 84.4905C183.588 83.3635 178.948 76.8974 180.075 70.0415C180.634 66.6424 182.501 63.7926 185.092 61.9233C185 62.2667 184.931 62.614 184.873 62.9635C183.746 69.8204 188.387 76.2855 195.242 77.4125C198.688 77.979 202.051 77.0853 204.673 75.1726Z" fill="#FF8243"/>
</g>
<path d="M190.816 79.6786L191.066 78.1567C190.321 77.9356 189.73 77.6639 189.294 77.3408C188.858 77.0176 188.511 76.5531 188.255 75.9492C187.998 75.3463 187.906 74.6445 187.98 73.8467L189.558 73.8103C189.541 74.6465 189.651 75.2817 189.888 75.7139C190.227 76.3259 190.691 76.7116 191.277 76.8722L192.074 72.0269C191.467 71.8057 190.868 71.4584 190.275 70.9837C189.834 70.6333 189.523 70.1971 189.339 69.675C189.156 69.1529 189.114 68.5873 189.214 67.9784C189.392 66.8958 189.919 66.0819 190.796 65.5376C191.383 65.171 192.189 65.0195 193.215 65.0842L193.334 64.3571L194.231 64.5045L194.112 65.2316C194.983 65.4608 195.642 65.8365 196.089 66.3546C196.663 67.017 196.94 67.84 196.916 68.8267L195.305 68.8045C195.313 68.1925 195.201 67.7037 194.968 67.3381C194.736 66.9736 194.38 66.6989 193.902 66.5161L193.181 70.9039C193.915 71.2221 194.399 71.4553 194.629 71.6028C195.068 71.8886 195.413 72.2067 195.662 72.553C195.913 72.9014 196.083 73.2943 196.176 73.7315C196.269 74.1698 196.277 74.6283 196.198 75.107C196.025 76.1623 195.544 76.9853 194.758 77.5801C193.971 78.1749 193.042 78.4092 191.968 78.286L191.716 79.825L190.819 79.6776L190.816 79.6786ZM193.006 66.3525C192.399 66.3455 191.893 66.505 191.49 66.8322C191.087 67.1594 190.841 67.5856 190.755 68.1097C190.67 68.6287 190.743 69.0862 190.976 69.4831C191.209 69.88 191.655 70.2405 192.314 70.5626L193.006 66.3515V66.3525ZM192.174 77.0196C192.778 77.0429 193.309 76.8671 193.768 76.4905C194.226 76.1148 194.509 75.6018 194.615 74.9545C194.706 74.4011 194.641 73.9345 194.424 73.5548C194.206 73.1751 193.709 72.7843 192.936 72.3854L192.174 77.0196Z" fill="white"/>
<path d="M209.757 83.0232H174.864V84.334H209.757V83.0232Z" fill="#417360"/>
<path d="M209.757 84.334H174.864V89.3853H209.757V84.334Z" fill="#CEDDD1"/>
</g>
<defs>
<clipPath id="clip0_145_2242">
<rect width="239.104" height="170" fill="white" transform="translate(70.4478)"/>
</clipPath>
</defs>
</svg>
