<svg width="180" height="224" viewBox="0 0 180 224" fill="none" xmlns="http://www.w3.org/2000/svg">
<g clip-path="url(#clip0_1_8617)">
<rect width="180" height="224" rx="34" fill="white" fill-opacity="0.5"/>
<g filter="url(#filter0_f_1_8617)">
<circle cx="92" cy="110" r="50" fill="white"/>
</g>
<rect x="4.94482" y="5.63477" width="170.11" height="212.751" rx="29.011" fill="#E7EDFC"/>
<path d="M4.94482 107.665L10.6124 107.767" stroke="#A1A1A1" stroke-width="0.967033" stroke-linecap="round" stroke-linejoin="round"/>
<path d="M4.94617 103.313L10.6112 103.516" stroke="#A1A1A1" stroke-width="0.967033" stroke-linecap="round" stroke-linejoin="round"/>
<path d="M4.9552 98.3269L10.6021 98.8326" stroke="#A1A1A1" stroke-width="0.967033" stroke-linecap="round" stroke-linejoin="round"/>
<path d="M4.98108 93.6433L10.5944 94.4508" stroke="#A1A1A1" stroke-width="0.967033" stroke-linecap="round" stroke-linejoin="round"/>
<path d="M5.01538 88.8081L10.56 90.0144" stroke="#A1A1A1" stroke-width="0.967033" stroke-linecap="round" stroke-linejoin="round"/>
<path d="M5.09229 83.6797L10.4833 85.4727" stroke="#A1A1A1" stroke-width="0.967033" stroke-linecap="round" stroke-linejoin="round"/>
<path d="M5.15991 78.6543L10.4156 80.8278" stroke="#A1A1A1" stroke-width="0.967033" stroke-linecap="round" stroke-linejoin="round"/>
<path d="M5.19861 73.3354L10.377 75.6954" stroke="#A1A1A1" stroke-width="0.967033" stroke-linecap="round" stroke-linejoin="round"/>
<path d="M5.26245 67.7751L10.3131 70.4093" stroke="#A1A1A1" stroke-width="0.967033" stroke-linecap="round" stroke-linejoin="round"/>
<path d="M5.41077 55.9077L10.1648 59.0678" stroke="#A1A1A1" stroke-width="0.967033" stroke-linecap="round" stroke-linejoin="round"/>
<path d="M5.52429 49.1597L10.0513 52.6515" stroke="#A1A1A1" stroke-width="0.967033" stroke-linecap="round" stroke-linejoin="round"/>
<path d="M5.55432 42.1487L10.0211 45.7209" stroke="#A1A1A1" stroke-width="0.967033" stroke-linecap="round" stroke-linejoin="round"/>
<path d="M5.64868 34.2952L9.92674 38.1018" stroke="#A1A1A1" stroke-width="0.967033" stroke-linecap="round" stroke-linejoin="round"/>
<path d="M6.82275 26.918L10.831 31.0207" stroke="#A1A1A1" stroke-width="0.967033" stroke-linecap="round" stroke-linejoin="round"/>
<path d="M9.66809 20.6323L13.534 24.8758" stroke="#A1A1A1" stroke-width="0.967033" stroke-linecap="round" stroke-linejoin="round"/>
<path d="M13.5582 15.3135L17.2019 19.7582" stroke="#A1A1A1" stroke-width="0.967033" stroke-linecap="round" stroke-linejoin="round"/>
<path d="M18.6432 11.4456L21.8945 16.1984" stroke="#A1A1A1" stroke-width="0.967033" stroke-linecap="round" stroke-linejoin="round"/>
<path d="M24.3116 8.54443L27.3155 13.465" stroke="#A1A1A1" stroke-width="0.967033" stroke-linecap="round" stroke-linejoin="round"/>
<path d="M37.5382 6.12671L39.9338 11.3853" stroke="#A1A1A1" stroke-width="0.967033" stroke-linecap="round" stroke-linejoin="round"/>
<path d="M43.8611 6.04761L45.8925 11.4644" stroke="#A1A1A1" stroke-width="0.967033" stroke-linecap="round" stroke-linejoin="round"/>
<path d="M50.3711 5.90259L52.0284 11.4513" stroke="#A1A1A1" stroke-width="0.967033" stroke-linecap="round" stroke-linejoin="round"/>
<path d="M56.4331 5.71704L57.8044 11.3469" stroke="#A1A1A1" stroke-width="0.967033" stroke-linecap="round" stroke-linejoin="round"/>
<path d="M62.2465 5.68408L63.3281 11.3797" stroke="#A1A1A1" stroke-width="0.967033" stroke-linecap="round" stroke-linejoin="round"/>
<path d="M67.9573 5.6665L68.844 11.3973" stroke="#A1A1A1" stroke-width="0.967033" stroke-linecap="round" stroke-linejoin="round"/>
<path d="M73.6747 5.64673L74.2672 11.4171" stroke="#A1A1A1" stroke-width="0.967033" stroke-linecap="round" stroke-linejoin="round"/>
<path d="M79.1071 5.63477L79.4037 11.429" stroke="#A1A1A1" stroke-width="0.967033" stroke-linecap="round" stroke-linejoin="round"/>
<path d="M84.3112 5.63477L84.6011 11.4297" stroke="#A1A1A1" stroke-width="0.967033" stroke-linecap="round" stroke-linejoin="round"/>
<path d="M175 108.039L169.332 108.14" stroke="#A1A1A1" stroke-width="0.967033" stroke-linecap="round" stroke-linejoin="round"/>
<path d="M174.998 103.671L169.334 103.874" stroke="#A1A1A1" stroke-width="0.967033" stroke-linecap="round" stroke-linejoin="round"/>
<path d="M174.989 98.666L169.343 99.1736" stroke="#A1A1A1" stroke-width="0.967033" stroke-linecap="round" stroke-linejoin="round"/>
<path d="M174.964 93.9653L169.35 94.7758" stroke="#A1A1A1" stroke-width="0.967033" stroke-linecap="round" stroke-linejoin="round"/>
<path d="M174.929 89.1125L169.385 90.3233" stroke="#A1A1A1" stroke-width="0.967033" stroke-linecap="round" stroke-linejoin="round"/>
<path d="M174.852 83.9653L169.461 85.7649" stroke="#A1A1A1" stroke-width="0.967033" stroke-linecap="round" stroke-linejoin="round"/>
<path d="M174.785 78.9214L169.529 81.1029" stroke="#A1A1A1" stroke-width="0.967033" stroke-linecap="round" stroke-linejoin="round"/>
<path d="M174.746 73.5833L169.568 75.9519" stroke="#A1A1A1" stroke-width="0.967033" stroke-linecap="round" stroke-linejoin="round"/>
<path d="M174.682 68.0024L169.632 70.6462" stroke="#A1A1A1" stroke-width="0.967033" stroke-linecap="round" stroke-linejoin="round"/>
<path d="M174.534 56.0918L169.78 59.2635" stroke="#A1A1A1" stroke-width="0.967033" stroke-linecap="round" stroke-linejoin="round"/>
<path d="M174.42 49.3191L169.893 52.8237" stroke="#A1A1A1" stroke-width="0.967033" stroke-linecap="round" stroke-linejoin="round"/>
<path d="M174.39 42.2825L169.924 45.8677" stroke="#A1A1A1" stroke-width="0.967033" stroke-linecap="round" stroke-linejoin="round"/>
<path d="M174.296 34.4001L170.018 38.2207" stroke="#A1A1A1" stroke-width="0.967033" stroke-linecap="round" stroke-linejoin="round"/>
<path d="M173.122 26.9958L169.114 31.1136" stroke="#A1A1A1" stroke-width="0.967033" stroke-linecap="round" stroke-linejoin="round"/>
<path d="M170.277 20.6873L166.411 24.9462" stroke="#A1A1A1" stroke-width="0.967033" stroke-linecap="round" stroke-linejoin="round"/>
<path d="M166.387 15.3489L162.743 19.8099" stroke="#A1A1A1" stroke-width="0.967033" stroke-linecap="round" stroke-linejoin="round"/>
<path d="M161.302 11.4668L158.051 16.2371" stroke="#A1A1A1" stroke-width="0.967033" stroke-linecap="round" stroke-linejoin="round"/>
<path d="M155.634 8.55493L152.63 13.4935" stroke="#A1A1A1" stroke-width="0.967033" stroke-linecap="round" stroke-linejoin="round"/>
<path d="M142.408 6.12866L140.012 11.4065" stroke="#A1A1A1" stroke-width="0.967033" stroke-linecap="round" stroke-linejoin="round"/>
<path d="M136.085 6.04907L134.054 11.4857" stroke="#A1A1A1" stroke-width="0.967033" stroke-linecap="round" stroke-linejoin="round"/>
<path d="M129.575 5.90356L127.918 11.4725" stroke="#A1A1A1" stroke-width="0.967033" stroke-linecap="round" stroke-linejoin="round"/>
<path d="M123.514 5.71729L122.143 11.3677" stroke="#A1A1A1" stroke-width="0.967033" stroke-linecap="round" stroke-linejoin="round"/>
<path d="M117.701 5.68433L116.619 11.4008" stroke="#A1A1A1" stroke-width="0.967033" stroke-linecap="round" stroke-linejoin="round"/>
<path d="M111.99 5.6665L111.103 11.4182" stroke="#A1A1A1" stroke-width="0.967033" stroke-linecap="round" stroke-linejoin="round"/>
<path d="M106.273 5.64673L105.68 11.4383" stroke="#A1A1A1" stroke-width="0.967033" stroke-linecap="round" stroke-linejoin="round"/>
<path d="M100.841 5.63477L100.544 11.4502" stroke="#A1A1A1" stroke-width="0.967033" stroke-linecap="round" stroke-linejoin="round"/>
<path d="M96.0585 5.63477L95.7685 11.4509" stroke="#A1A1A1" stroke-width="0.967033" stroke-linecap="round" stroke-linejoin="round"/>
<path d="M175 116.352L169.332 116.25" stroke="#A1A1A1" stroke-width="0.967033" stroke-linecap="round" stroke-linejoin="round"/>
<path d="M174.998 120.703L169.333 120.501" stroke="#A1A1A1" stroke-width="0.967033" stroke-linecap="round" stroke-linejoin="round"/>
<path d="M174.989 125.69L169.342 125.184" stroke="#A1A1A1" stroke-width="0.967033" stroke-linecap="round" stroke-linejoin="round"/>
<path d="M174.964 130.374L169.35 129.566" stroke="#A1A1A1" stroke-width="0.967033" stroke-linecap="round" stroke-linejoin="round"/>
<path d="M174.929 135.209L169.384 134.002" stroke="#A1A1A1" stroke-width="0.967033" stroke-linecap="round" stroke-linejoin="round"/>
<path d="M174.852 140.337L169.461 138.544" stroke="#A1A1A1" stroke-width="0.967033" stroke-linecap="round" stroke-linejoin="round"/>
<path d="M174.785 145.363L169.529 143.189" stroke="#A1A1A1" stroke-width="0.967033" stroke-linecap="round" stroke-linejoin="round"/>
<path d="M174.746 150.681L169.568 148.321" stroke="#A1A1A1" stroke-width="0.967033" stroke-linecap="round" stroke-linejoin="round"/>
<path d="M174.682 156.242L169.631 153.608" stroke="#A1A1A1" stroke-width="0.967033" stroke-linecap="round" stroke-linejoin="round"/>
<path d="M174.534 168.109L169.78 164.949" stroke="#A1A1A1" stroke-width="0.967033" stroke-linecap="round" stroke-linejoin="round"/>
<path d="M174.42 174.857L169.893 171.365" stroke="#A1A1A1" stroke-width="0.967033" stroke-linecap="round" stroke-linejoin="round"/>
<path d="M174.39 181.868L169.923 178.296" stroke="#A1A1A1" stroke-width="0.967033" stroke-linecap="round" stroke-linejoin="round"/>
<path d="M174.296 189.722L170.018 185.915" stroke="#A1A1A1" stroke-width="0.967033" stroke-linecap="round" stroke-linejoin="round"/>
<path d="M173.122 197.099L169.114 192.996" stroke="#A1A1A1" stroke-width="0.967033" stroke-linecap="round" stroke-linejoin="round"/>
<path d="M170.276 203.385L166.411 199.141" stroke="#A1A1A1" stroke-width="0.967033" stroke-linecap="round" stroke-linejoin="round"/>
<path d="M166.386 208.703L162.743 204.259" stroke="#A1A1A1" stroke-width="0.967033" stroke-linecap="round" stroke-linejoin="round"/>
<path d="M161.301 212.571L158.05 207.818" stroke="#A1A1A1" stroke-width="0.967033" stroke-linecap="round" stroke-linejoin="round"/>
<path d="M155.633 215.472L152.629 210.552" stroke="#A1A1A1" stroke-width="0.967033" stroke-linecap="round" stroke-linejoin="round"/>
<path d="M142.406 217.89L140.011 212.632" stroke="#A1A1A1" stroke-width="0.967033" stroke-linecap="round" stroke-linejoin="round"/>
<path d="M136.083 217.969L134.052 212.552" stroke="#A1A1A1" stroke-width="0.967033" stroke-linecap="round" stroke-linejoin="round"/>
<path d="M129.573 218.114L127.916 212.566" stroke="#A1A1A1" stroke-width="0.967033" stroke-linecap="round" stroke-linejoin="round"/>
<path d="M123.511 218.3L122.14 212.67" stroke="#A1A1A1" stroke-width="0.967033" stroke-linecap="round" stroke-linejoin="round"/>
<path d="M117.698 218.333L116.617 212.637" stroke="#A1A1A1" stroke-width="0.967033" stroke-linecap="round" stroke-linejoin="round"/>
<path d="M111.987 218.35L111.101 212.62" stroke="#A1A1A1" stroke-width="0.967033" stroke-linecap="round" stroke-linejoin="round"/>
<path d="M106.27 218.37L105.677 212.6" stroke="#A1A1A1" stroke-width="0.967033" stroke-linecap="round" stroke-linejoin="round"/>
<path d="M100.838 218.382L100.541 212.588" stroke="#A1A1A1" stroke-width="0.967033" stroke-linecap="round" stroke-linejoin="round"/>
<path d="M4.94482 115.978L10.6122 115.877" stroke="#A1A1A1" stroke-width="0.967033" stroke-linecap="round" stroke-linejoin="round"/>
<path d="M4.94617 120.346L10.6109 120.142" stroke="#A1A1A1" stroke-width="0.967033" stroke-linecap="round" stroke-linejoin="round"/>
<path d="M4.9552 125.351L10.6019 124.843" stroke="#A1A1A1" stroke-width="0.967033" stroke-linecap="round" stroke-linejoin="round"/>
<path d="M4.98108 130.052L10.5941 129.241" stroke="#A1A1A1" stroke-width="0.967033" stroke-linecap="round" stroke-linejoin="round"/>
<path d="M5.01538 134.904L10.5597 133.694" stroke="#A1A1A1" stroke-width="0.967033" stroke-linecap="round" stroke-linejoin="round"/>
<path d="M5.09229 140.052L10.4831 138.252" stroke="#A1A1A1" stroke-width="0.967033" stroke-linecap="round" stroke-linejoin="round"/>
<path d="M5.15991 145.095L10.4154 142.914" stroke="#A1A1A1" stroke-width="0.967033" stroke-linecap="round" stroke-linejoin="round"/>
<path d="M5.19861 150.434L10.3768 148.065" stroke="#A1A1A1" stroke-width="0.967033" stroke-linecap="round" stroke-linejoin="round"/>
<path d="M5.26245 156.014L10.3129 153.371" stroke="#A1A1A1" stroke-width="0.967033" stroke-linecap="round" stroke-linejoin="round"/>
<path d="M5.41077 167.925L10.1645 164.753" stroke="#A1A1A1" stroke-width="0.967033" stroke-linecap="round" stroke-linejoin="round"/>
<path d="M5.52429 174.698L10.0511 171.193" stroke="#A1A1A1" stroke-width="0.967033" stroke-linecap="round" stroke-linejoin="round"/>
<path d="M5.55432 181.734L10.0209 178.149" stroke="#A1A1A1" stroke-width="0.967033" stroke-linecap="round" stroke-linejoin="round"/>
<path d="M5.64868 189.617L9.92654 185.796" stroke="#A1A1A1" stroke-width="0.967033" stroke-linecap="round" stroke-linejoin="round"/>
<path d="M6.82275 197.021L10.8308 192.903" stroke="#A1A1A1" stroke-width="0.967033" stroke-linecap="round" stroke-linejoin="round"/>
<path d="M9.66785 203.33L13.5336 199.071" stroke="#A1A1A1" stroke-width="0.967033" stroke-linecap="round" stroke-linejoin="round"/>
<path d="M13.5579 208.668L17.2013 204.207" stroke="#A1A1A1" stroke-width="0.967033" stroke-linecap="round" stroke-linejoin="round"/>
<path d="M18.6426 212.55L21.8937 207.78" stroke="#A1A1A1" stroke-width="0.967033" stroke-linecap="round" stroke-linejoin="round"/>
<path d="M24.3108 215.462L27.3145 210.523" stroke="#A1A1A1" stroke-width="0.967033" stroke-linecap="round" stroke-linejoin="round"/>
<path d="M37.5366 217.888L39.9321 212.61" stroke="#A1A1A1" stroke-width="0.967033" stroke-linecap="round" stroke-linejoin="round"/>
<path d="M43.8594 217.968L45.8907 212.531" stroke="#A1A1A1" stroke-width="0.967033" stroke-linecap="round" stroke-linejoin="round"/>
<path d="M50.3691 218.113L52.0264 212.544" stroke="#A1A1A1" stroke-width="0.967033" stroke-linecap="round" stroke-linejoin="round"/>
<path d="M56.4308 218.3L57.8021 212.649" stroke="#A1A1A1" stroke-width="0.967033" stroke-linecap="round" stroke-linejoin="round"/>
<path d="M62.2439 218.333L63.3254 212.616" stroke="#A1A1A1" stroke-width="0.967033" stroke-linecap="round" stroke-linejoin="round"/>
<path d="M67.9545 218.35L68.8412 212.599" stroke="#A1A1A1" stroke-width="0.967033" stroke-linecap="round" stroke-linejoin="round"/>
<path d="M73.6716 218.37L74.2641 212.579" stroke="#A1A1A1" stroke-width="0.967033" stroke-linecap="round" stroke-linejoin="round"/>
<path d="M79.1036 218.382L79.4003 212.567" stroke="#A1A1A1" stroke-width="0.967033" stroke-linecap="round" stroke-linejoin="round"/>
<path d="M84.0544 218.385L84.1515 212.563" stroke="#A1A1A1" stroke-width="0.967033" stroke-linecap="round" stroke-linejoin="round"/>
<path d="M94.9241 212.563L95.0211 218.386" stroke="#A1A1A1" stroke-width="0.967033" stroke-linecap="round" stroke-linejoin="round"/>
<rect width="2" height="8" rx="1" transform="matrix(0.858352 -0.513061 0.487052 0.873373 29.7524 6.11816)" fill="#737373"/>
<rect width="2" height="8" rx="1" transform="matrix(0.858352 -0.513061 0.487052 0.873373 144.643 212.096)" fill="#737373"/>
<rect width="2" height="8" rx="1" transform="matrix(0.858352 0.513061 -0.487052 0.873373 33.4888 211.129)" fill="#737373"/>
<rect x="89.0669" y="211.613" width="2" height="8" rx="1" fill="#737373"/>
<rect x="89.0669" y="5" width="2" height="8" rx="1" fill="#737373"/>
<rect x="5.00049" y="112.975" width="2" height="7" rx="1" transform="rotate(-90 5.00049 112.975)" fill="#737373"/>
<rect width="2" height="8" rx="1" transform="matrix(-0.487052 0.873373 -0.858352 -0.513061 12.4399 64.6235)" fill="#737373"/>
<rect width="2" height="8" rx="1" transform="matrix(-0.487052 -0.873373 0.858352 -0.513061 5.96924 163.261)" fill="#737373"/>
<rect x="167.528" y="112.975" width="2" height="7" rx="1" transform="rotate(-90 167.528 112.975)" fill="#737373"/>
<rect width="2" height="8" rx="1" transform="matrix(-0.487052 -0.873373 0.858352 -0.513061 168.497 66.5576)" fill="#737373"/>
<rect width="2" height="8" rx="1" transform="matrix(-0.487052 0.873373 -0.858352 -0.513061 174.967 161.327)" fill="#737373"/>
<rect width="2" height="8" rx="1" transform="matrix(0.858352 0.513061 -0.487052 0.873373 147.913 5.15112)" fill="#737373"/>
<circle cx="92" cy="112" r="165.5" stroke="#262626" stroke-width="25"/>
</g>
<defs>
<filter id="filter0_f_1_8617" x="-62" y="-44" width="308" height="308" filterUnits="userSpaceOnUse" color-interpolation-filters="sRGB">
<feFlood flood-opacity="0" result="BackgroundImageFix"/>
<feBlend mode="normal" in="SourceGraphic" in2="BackgroundImageFix" result="shape"/>
<feGaussianBlur stdDeviation="52" result="effect1_foregroundBlur_1_8617"/>
</filter>
<clipPath id="clip0_1_8617">
<rect width="180" height="224" rx="34" fill="white"/>
</clipPath>
</defs>
</svg>
